<svg width="74" height="91" viewBox="0 0 74 91" fill="none" xmlns="http://www.w3.org/2000/svg">
<path d="M43.2271 69.0395C40.8374 75.8809 35.8409 82.0475 28.3122 85.9538C9.61093 95.657 1.56226 77.1085 1.71 77.1041M43.2271 69.0395C45.8499 61.5307 45.3326 53.2091 41.5765 46.1707C38.5031 40.4115 27.174 32.9142 22.0694 41.3767C17.4874 48.9727 22.0638 59.1965 29.116 64.2625C34.1157 67.8541 38.8986 69.2781 43.2271 69.0395ZM43.2271 69.0395C51.796 68.5671 58.5838 61.5793 61.7464 51.9956C67.0198 36.0145 61.8032 20.3858 52.6676 6.71145M72.0255 10.596C70.101 10.9708 68.2151 10.5929 66.3115 10.3022C60.061 9.34844 53.6699 6.53357 49.7868 1.8916C52.0235 7.84504 52.6845 16.2488 47.9236 21.2902" stroke="#665AB5" stroke-width="2.65" stroke-miterlimit="1.5" stroke-linecap="round" stroke-linejoin="round"/>
</svg>
