<svg width="46" height="43" viewBox="0 0 46 43" fill="none" xmlns="http://www.w3.org/2000/svg">
<rect x="3.67383" y="4.97852" width="42.2674" height="37.3367" rx="6.96951" fill="#6C5FBC"/>
<path d="M13.939 1.0075H28.3283C31.6423 1.0075 34.0264 1.00964 35.8415 1.25368C37.6277 1.49382 38.7114 1.95146 39.5136 2.75373C40.3159 3.556 40.7735 4.63964 41.0137 6.42582C41.2577 8.24098 41.2599 10.6251 41.2599 13.939V23.3976C41.2599 26.7116 41.2577 29.0957 41.0137 30.9108C40.7735 32.697 40.3159 33.7807 39.5136 34.5829C38.7114 35.3852 37.6277 35.8428 35.8415 36.083C34.0264 36.327 31.6423 36.3292 28.3283 36.3292H13.939C10.6251 36.3292 8.24098 36.327 6.42582 36.083C4.63964 35.8428 3.556 35.3852 2.75373 34.5829C1.95146 33.7807 1.49382 32.697 1.25368 30.9108C1.00964 29.0957 1.0075 26.7116 1.0075 23.3976V13.939C1.0075 10.6251 1.00964 8.24097 1.25368 6.42582C1.49382 4.63964 1.95146 3.556 2.75373 2.75373C3.556 1.95146 4.63964 1.49382 6.42582 1.25368C8.24098 1.00964 10.6251 1.0075 13.939 1.0075Z" fill="#DBD9EE" stroke="#6C5FBC" stroke-width="2.01499"/>
<path fill-rule="evenodd" clip-rule="evenodd" d="M22.753 13.0483C23.1554 15.5411 25.0026 17.6436 27.5114 17.6547L32.6048 17.6772C33.1803 17.6798 33.649 17.2153 33.6515 16.6397C33.6541 16.0641 33.1896 15.5955 32.614 15.5929L27.5206 15.5704C26.3952 15.5654 25.2361 14.6021 24.8719 13.0577L32.6192 13.092C33.1948 13.0945 33.6634 12.63 33.666 12.0544C33.6685 11.4789 33.204 11.0102 32.6284 11.0077L24.8775 10.9734C25.2501 9.43136 26.4149 8.47878 27.5395 8.48376L32.6329 8.50628C33.2084 8.50882 33.6771 8.0443 33.6796 7.46874C33.6822 6.89317 33.2177 6.42452 32.6421 6.42198L27.5487 6.39946C25.0391 6.38836 23.1784 8.47521 22.7598 10.964L9.72683 10.9064C9.15126 10.9039 8.68261 11.3684 8.68007 11.944C8.67752 12.5195 9.14205 12.9882 9.71761 12.9907L22.753 13.0483Z" fill="#6C5FBC"/>
<path fill-rule="evenodd" clip-rule="evenodd" d="M10.6918 23.704L10.7361 25.4343C10.7374 25.514 10.7622 25.5724 10.7839 25.6049L16.2904 25.6662L16.2347 23.5674L10.7421 23.5058C10.718 23.5439 10.6912 23.6122 10.6918 23.704ZM16.3488 27.7513L10.6978 27.6884C9.42687 27.6803 8.67141 26.5143 8.65212 25.4732L8.60767 23.7393C8.59181 22.6842 9.3281 21.4146 10.6744 21.4206L10.6815 21.4206L17.1108 21.4927C17.1688 21.4835 17.2278 21.4791 17.2873 21.4798L32.5671 21.6665C33.1316 21.6734 33.5879 22.1285 33.5964 22.6929L33.6066 23.3734C33.6905 27.0079 31.2594 30.3032 27.7984 30.2507L27.7966 30.2506L18.3976 30.1347C17.1262 30.1261 16.3709 28.959 16.3525 27.9175L16.3488 27.7513ZM18.3405 23.5772L18.4365 27.8805C18.4378 27.9604 18.4626 28.0188 18.4843 28.0513L27.8256 28.1665L27.8289 28.1666C29.6713 28.1951 31.4505 26.4159 31.5223 23.7382L18.3405 23.5772Z" fill="#6C5FBC"/>
</svg>
